<?xml version="1.0" encoding="UTF-8"?>
<svg xmlns="http://www.w3.org/2000/svg" width="572" height="600" viewBox="-1.829985 -0.73453 572 600">
	<defs>
		<radialGradient id="b" cx="284.1699" cy="314.38473" r="255.79911" gradientUnits="userSpaceOnUse">
			<stop offset="0" stop-color="#027cf1" />
			<stop offset=".4645" stop-color="#027cf1" />
			<stop offset=".74068" stop-color="#34c1de" />
			<stop offset="1" stop-color="#027cf1" stop-opacity="0" />
		</radialGradient>
	</defs>
	<circle fill="#fff" stroke="#000" stroke-width="3" cx="284.17001" cy="314.36091" r="282.67002" />
	<circle fill="url(#b)" cx="284.1699" cy="314.38473" r="246.28668" />
	<ellipse fill="#fff" stroke="#148bcb" stroke-width="11" cx="103.67839" cy="85.76464" rx="78.07561" ry="80.26464" />
	<ellipse fill="#fff" stroke="#148bcb" stroke-width="11" cx="472.61664" cy="110.99651" rx="35.38254" ry="36.37456" />
	<ellipse fill="#fff" stroke="#148bcb" stroke-width="11" cx="467.0192" cy="530.80347" rx="35.38254" ry="36.37457" />
	<path fill="#fff" d="M463.79376,504.06833l-7.42497,2.31244c-.51602-4.02493-1.61743-8.326-4.22397-11.59907-1.14426-1.43686-2.7665-2.68719-4.42513-3.55337-5.08783-2.65707-12.28528-3.48752-21.04865-2.74042-17.52673,1.49426-40.70142,9.013-63.78732,15.39291-23.08591,6.37994-46.14359,11.76559-64.89514,7.98801-9.37579-1.88882-17.75858-6.26041-23.78906-13.99356s-9.65109-18.54108-10.55347-33.05978c-.6113-9.83582,1.22803-22.73358,5.3642-35.85852-23.57494-8.47235-43.16711-25.7041-54.92474-47.98627-13.84312,1.48227-23.991,1.28918-31.48552-.29153-8.10046-1.70853-13.4324-5.30801-15.976-10.26196-2.54358-4.95395-2.19167-10.51657-.99121-15.68445s3.29713-10.21109,4.95605-14.63495c2.69102-7.17606,4.10327-14.25284,3.26517-18.24994-.41904-1.99854-1.11865-3.11264-2.44887-3.96484-.99767-.63916-2.55251-1.18143-4.89775-1.28275v.00024c-.78175-.03378-1.66098-.01865-2.62379.0582-7.70255.61621-20.94266,5.18954-40.75626,15.97598-18.77815,10.22275-43.66331,26.08044-75.91509,49.09409l-2.04072-7.69632c31.31426-22.26556,55.66035-37.78497,74.39911-47.98627,20.24298-11.0202,33.94048-16.00912,43.72989-16.79227.61185-.04889,1.22131-.10226,1.8075-.11661,4.10329-.09982,7.56218.68192,10.32025,2.44888,3.15208,2.01938,4.99611,5.2637,5.71404,8.68768,1.43585,6.8479-.65028,14.6976-3.5567,22.448-1.71356,4.56946-3.65837,9.37057-4.66452,13.70203-1.00616,4.33145-.98164,7.96024.34984,10.55347s4.07294,4.92709,10.84502,6.35541c5.8669,1.23743,14.52127,1.53391,26.58777.40814-5.50883-12.72861-8.62936-26.80826-8.62936-41.63086.00002-34.00043,16.13416-64.1185,40.93118-82.79526-1.75134-17.06433-.89214-30.45361,0-40.75626.9108-10.51817,1.62032-17.84038.46645-21.92325-.57693-2.04144-1.37141-3.32446-3.09026-4.60622s-4.48315-2.48676-8.74599-3.44008c-8.26848-1.84918-21.98227-2.67513-42.73868-3.14854-5.60641,11.03455-16.79327,18.59978-29.73631,18.59978-15.64202,0-28.77319-10.90931-32.50238-25.79649,8.39171-2.41763,18.58875-7.46626,24.53941-11.91953l-11.76914-9.90418,5.57127-4.99296,12.14513,10.23263c7.63792-6.4431,14.78113-15.37211,18.47857-22.22633,10.32092,5.89059,17.12169,17.09972,17.12169,30.08942,0,2.9483-.43044,5.78062-1.10782,8.51276,19.33989.47612,32.56157,1.24992,41.57256,3.26517,4.86217,1.08739,8.65002,2.52077,11.603,4.72282s4.94992,5.24831,5.88896,8.57106c1.8781,6.64552.60518,14.2498-.29153,24.60535-.80159,9.25706-1.46178,20.73242-.29153,35.15883,15.09279-9.43092,32.83519-14.86816,51.7762-14.86816,17.45999,0,33.87848,4.6601,48.16116,12.76913,3.80994-35.26326,9.89703-57.20796,17.8418-71.25056,8.35016-14.75912,19.24799-20.511,30.14447-22.38969s21.70673-.54259,31.48553-2.04073c8.11771-1.24367,17.27528-6.05462,24.33736-14.26864l5.50985,5.03071c-9.34553,11.23733-19.58616,15.1822-28.73936,16.5845-11.15326,1.70871-21.91641.42104-31.31061,2.04073s-17.50427,5.54669-24.9552,18.71638c-7.32578,12.94852-13.53018,35.1033-17.25873,71.95024,26.88348,18.39316,44.60449,49.81311,44.60449,85.47736,0,17.34781-4.20084,33.71262-11.603,48.04456,7.10495,6.50113,11.603,15.93106,11.603,26.47116.00003,19.58786-15.46381,35.50867-34.51746,35.50867-11.52667-.00003-21.71692-5.87637-27.98712-14.80984-11.53369,4.78885-24.11993,7.40494-37.31616,7.40494-8.90631,0-17.55264-1.18692-25.77148-3.44009-3.85785,12.38123-5.53879,24.62238-5.01437,33.05981.8399,13.51331,4.13696,22.71057,8.97919,28.92004,4.84225,6.20944,11.27963,9.68408,19.35776,11.31146,16.15631,3.25482,38.60413-1.5564,61.45508-7.87137s46.0835-14.00247,65.12839-15.62616c9.52243-.81186,18.09738-.17444,25.1301,3.49838,2.31982,1.21152,4.66722,2.67025,6.2388,4.72284,3.76929,4.92295,5.61546,10.18952,6.39517,14.76389Z" />
</svg>