<?xml version="1.0" encoding="UTF-8" standalone="no"?>
<!-- Created with Inkscape (http://www.inkscape.org/) -->

<svg
   xmlns:dc="http://purl.org/dc/elements/1.1/"
   xmlns:cc="http://creativecommons.org/ns#"
   xmlns:rdf="http://www.w3.org/1999/02/22-rdf-syntax-ns#"
   xmlns:svg="http://www.w3.org/2000/svg"
   xmlns="http://www.w3.org/2000/svg"
   version="1.1"
   width="605"
   height="539"
   id="svg2998">
  <defs
     id="defs3000" />
  <metadata
     id="metadata3003">
    <rdf:RDF>
      <cc:Work
         rdf:about="">
        <dc:format>image/svg+xml</dc:format>
        <dc:type
           rdf:resource="http://purl.org/dc/dcmitype/StillImage" />
        <dc:title></dc:title>
      </cc:Work>
    </rdf:RDF>
  </metadata>
  <g
     transform="translate(-91.785713,-280.00504)"
     id="layer1"
     style="display:inline">
    <path
       d="m 283,11 0,65.6875 c -91.96502,10.107396 -163.53125,88.32864 -163.53125,183.34375 0,97.31487 75.07679,177.02446 170.25,183.96875 l 13.75,80.625 9.4375,-80.375 c 96.98432,-5.05118 174.0625,-85.6001 174.0625,-184.21875 C 486.96875,163.15441 412.56264,83.750831 318,76.1875 L 318,11 283,11 z m 10,74.21875 0,60.5 -13.03125,4 0,-63.25 c 4.29365,-0.57227 8.64476,-0.99613 13.03125,-1.25 z m 25,0.3125 c 89.42011,7.51748 159.65625,82.49701 159.65625,173.90625 0,92.71717 -72.25403,168.56302 -163.5,174.21875 l 32.875,-274.9375 -29.03125,-9 0,-64.1875 z M 264.96875,155.71875 298,433.90625 c -3.39616,-0.0999 -6.74899,-0.30227 -10.09375,-0.59375 l -35.96875,-273.59375 13.03125,-4 z"
       transform="translate(91.785713,280.00504)"
       id="path3032"
       style="fill:#c9a227;fill-opacity:1;stroke:none" />
    <path
       d="m 506.84375,46.9375 -54.90625,54.90625 -6.78125,6.46875 c 0.0521,0.0519 0.10417,0.1043 0.15625,0.15625 38.84903,38.75438 62.15209,92.47818 62.40625,150.65625 0.23292,53.31463 -19.32805,100.82635 -51.625,136.78125 -4.76179,5.3011 -9.76944,10.37603 -15.0625,15.15625 L 447.8125,418.25 499,469.5625 461.1875,404.625 c 31.87576,-35.46418 52.33117,-81.5765 55.46875,-132.375 L 597,262.09375 517.03125,252.75 517,252.78125 c -1.34119,-50.99341 -20.42379,-98.47647 -51.28125,-135.75 l 0.0625,0.0312 41.0625,-70.125 z M 97.21875,48.90625 138.03125,118 C 107.49018,155.50717 88.659449,203.10219 87.3125,253.71875 L 4.90625,263.5625 86.8125,273.03125 86.84375,273 c 2.865179,51.2177 23.43637,97.86298 55.9375,133.34375 l -38.0625,64.375 51.65625,-51.25 6.9375,-6.75 c -0.0109,-0.01 -0.0203,-0.0214 -0.0312,-0.0312 -41.30569,-37.13459 -67.1875,-90.90431 -67.1875,-151.3125 0,-58.07218 23.91965,-112.37594 62.46875,-151.65625 L 151.75,102.625 97.21875,48.90625 z"
       transform="translate(91.785713,280.00504)"
       id="path3794-7"
       style="fill:#c9a227;fill-opacity:1;stroke:none" />
  </g>
</svg>
