<?xml version="1.0" encoding="UTF-8"?>
<svg xmlns="http://www.w3.org/2000/svg" width="612" height="612" viewBox="-6 -6 612 612">
	<use href="#wings" stroke="#FFF" stroke-width="4" stroke-linejoin="round"/>
	<g id="wings">
		<path d="M258.46,135.32c1.19-1.42,2.42-2.82,3.77-4.09-9.36,11.47-14.31,23.68-12.78,38.69,2.06,15.39,10.96,33.11,25.66,39.7,7.02,3.73,16.31,8.05,16.3,17.26-.01,89.12-.1,256.2,0,267.36.07,8.11,1.65,11.3,5.67,15.49,2.77,2.69,6.14,1.43,7.99-1.61,2.74-4.2,3.34-9.74,3.4-13.89.74-49.69.63-99.25,1.22-148.9,2.34,39.81,7.21,100.64,28.71,134.34,2.35,3.33,4.79,6.83,8.05,9.28,2.37,1.17,3.6-2.2,4.52-3.93,4.34-8.32,8.67-16.64,13.17-24.88,1.86-3.32,4.1-6.51,7.15-8.84,11.37-8.64,26.38-6.38,39.53-3.92,46.04,8.98,89.25-17.9,116.23-53.62-23.23,55.59-75.89,127.07-140.54,79.09,11.42,15.36,28.7,28.92,47.92,30.89-77.25,55.36-192.97,57.13-269.93.03,19.33-3.73,37.4-14.04,49.36-29.8-21.37,13.36-46.88,20.85-70.4,8.18-31.76-17.47-53.73-57.2-70.51-88.36,42.26,45.02,72.21,65.68,135.67,52.08,21.3-4.73,31.73,16.79,39.22,32.85,1.44,2.71,3.96,10.57,7.19,10.65,3.9-.56,7.34-14.61,8.79-19.13,11.64-38.17,14.48-78.43,16.35-118.11.44-22.31.6-44.68-1.6-66.91-1.69-17.49-6.46-33.64-16.23-48.38-8.12-12.35-19.29-26.12-35.19-26.96,1.87-18.2,7.95-36.07,16.23-52.22,4.2-7.97,9.24-15.51,15.08-22.34Z"/>
		<path d="M77.93,191.53c1.35-2.61,2.53-5.31,4.08-7.81-11.37,49.85-5.03,110.55,28.44,150.94,19.25,23.58,39.96,38.81,69.92,45.92,4.63,1.16,9.41,1.71,13.94,3.28,19.18,6.73,28.68,27.36,30.9,46.36-28.34,13.1-62.04,11.03-89.55-3.21-41.53-19.05-65.99-61.22-75.56-104.47-7.22-29.6-5.58-60.77,2.47-90.04,3.75-14.12,9.06-27.8,15.36-40.97Z"/>
		<path d="M517.93,183.74c1.33,2,2.31,4.21,3.37,6.36,15.26,31.06,24.19,65.6,23.1,100.33-2.61,39.27-15.81,79.31-42.49,108.87-31.61,34.14-80.96,48.19-127.14,30.93,1.3-13.8,6.74-28.11,16.86-37.89,6.87-6.78,16.3-9.58,25.58-11.23,22.47-4.93,43.68-15.79,59.58-32.56,9.13-9.3,18.03-19.22,24.51-30.62,17.94-31.75,24.14-69.33,21.11-105.43-.87-9.67-2.25-19.32-4.48-28.76Z"/>
		<path d="M167.97,88.95c16.09-10.75,33.97-18.6,52.38-24.42-79.83,40.43-109.7,124.89-37.87,190.18,5.87,5.27,12.38,9.78,18.09,15.25,8.01,7.74,15.71,15.86,15.71,26.8,0,26.51.52,53.38.67,80.05-49.94,1.32-87.08-38.22-107.55-77.68-18.1-34.88-17.27-77.24-8.14-115,9.44-38.59,33.23-73.55,66.71-95.19Z"/>
		<path d="M465.15,117.58c36.51,42.45,47.75,103.66,34.65,157.45-7.35,27.37-21.93,57.76-44.81,74.61-24.93,18.36-45.27,28.46-71.47,27.17-.01-25.58.45-51.27.59-76.82.02-3.09.22-6.2,1.14-9.17,4.14-12.47,14.72-21.29,24.58-29.36,80.12-63.59,55.54-153.69-29.6-196.78,32.12,9.75,62.81,27.08,84.92,52.89Z"/>
		<path d="M295.73,137.37c.43-.07.86-.14,1.29-.23.23,2.16.11,4.33.12,6.5v46.12c-.01,2.1.16,4.23-.18,6.31-.43-.04-.85-.06-1.28-.06-1.14-4.54-2.08-9.13-3.17-13.69-.46-1.84-.7-3.74-1.29-5.55-2.06-.29-4.15-.21-6.22-.25-6.12,0-12.25,0-18.37,0-2.01,0-4.02.11-6.03-.04-.04-.47-.32-1.11.19-1.43,1.54-.79,3.28-1.06,4.92-1.63,4.14-1.38,8.33-2.62,12.47-4,1.69-.58,3.51-.87,5.04-1.86.04-.68.03-1.36-.06-2.04-1.48-.66-3.06-1.06-4.6-1.55-3.79-1.24-7.61-2.37-11.39-3.65-2.17-.75-4.44-1.21-6.54-2.17-.04-.44-.09-.88-.13-1.32,6.16-.23,12.34.07,18.51-.15,4.07-.15,8.14.1,12.21-.08.15-.47.31-.93.45-1.41,1.29-5.96,2.8-11.87,4.06-17.82Z"/>
		<path d="M302.96,137.13c.43.06.87.14,1.3.24,1.19,4.66,2.1,9.39,3.28,14.05.43,1.72.67,3.48,1.25,5.16,3.06.22,6.14-.02,9.21.06,6.25.14,12.49.15,18.74.09.91-.02,1.83.03,2.75.1-.05.43-.09.87-.12,1.31-2.2,1.01-4.58,1.51-6.85,2.29-4.51,1.49-9.04,2.89-13.57,4.32-.69.21-1.35.5-2.02.78-.19.66-.22,1.35-.15,2.04,1.05.58,2.2.97,3.35,1.32,5.9,1.83,11.77,3.8,17.7,5.56.46.16.94.32,1.37.59.49.32.28.96.18,1.42-2,.15-4.01.03-6.01.04-6.25,0-12.5,0-18.75,0-1.94.04-3.9-.03-5.83.26-.63,2.02-.87,4.14-1.41,6.18-1.14,4.32-1.84,8.75-3.07,13.05-.43,0-.86.03-1.29.07-.35-2.09-.18-4.21-.18-6.32v-46.12c0-2.17-.12-4.35.12-6.49Z"/>
	</g>
	<circle fill="none" stroke="#FFF" stroke-width="36" cx="300" cy="300" r="284"/>
	<circle fill="none" stroke="#000" stroke-width="32" cx="300" cy="300" r="284"/>
</svg>